<?xml version="1.0" encoding="UTF-8" standalone="no"?>
<svg
   xmlns:osb="http://www.openswatchbook.org/uri/2009/osb"
   xmlns:dc="http://purl.org/dc/elements/1.1/"
   xmlns:cc="http://creativecommons.org/ns#"
   xmlns:rdf="http://www.w3.org/1999/02/22-rdf-syntax-ns#"
   xmlns:svg="http://www.w3.org/2000/svg"
   xmlns="http://www.w3.org/2000/svg"
   xmlns:xlink="http://www.w3.org/1999/xlink"
   id="svg8"
   version="1.1"
   viewBox="0 0 117.40885 68.990112"
   height="68.990112mm"
   width="117.40885mm">
  <defs
     id="defs2">
    <linearGradient
       id="linearGradient951"
       osb:paint="solid">
      <stop
         style="stop-color:#4d4236;stop-opacity:1;"
         offset="0"
         id="stop949" />
    </linearGradient>
    <linearGradient
       osb:paint="solid"
       id="linearGradient1059">
      <stop
         id="stop1057"
         offset="0"
         style="stop-color:#937c79;stop-opacity:1;" />
    </linearGradient>
    <linearGradient
       gradientTransform="matrix(1.2587229,0,0,1,-19.737984,0)"
       osb:paint="solid"
       id="linearGradient1019">
      <stop
         id="stop1017"
         offset="0"
         style="stop-color:#51db51;stop-opacity:1;" />
    </linearGradient>
    <linearGradient
       gradientTransform="matrix(-0.20184496,-0.19504798,0.24491567,-0.19645511,70.359539,54.057521)"
       osb:paint="solid"
       id="linearGradient1013">
      <stop
         id="stop1011"
         offset="0"
         style="stop-color:#7b6755;stop-opacity:1;" />
    </linearGradient>
    <linearGradient
       osb:paint="solid"
       id="linearGradient1007">
      <stop
         id="stop1005"
         offset="0"
         style="stop-color:#96816b;stop-opacity:1;" />
    </linearGradient>
    <linearGradient
       id="linearGradient999">
      <stop
         id="stop997"
         offset="0"
         style="stop-color:#673524;stop-opacity:1;" />
    </linearGradient>
    <linearGradient
       osb:paint="solid"
       id="linearGradient981">
      <stop
         id="stop979"
         offset="0"
         style="stop-color:#6d392d;stop-opacity:1;" />
    </linearGradient>
    <linearGradient
       gradientUnits="userSpaceOnUse"
       y2="61.838879"
       x2="60.688797"
       y1="61.838879"
       x1="56.672802"
       id="linearGradient983"
       xlink:href="#linearGradient981" />
    <linearGradient
       gradientUnits="userSpaceOnUse"
       id="linearGradient1003"
       xlink:href="#linearGradient981" />
    <linearGradient
       gradientUnits="userSpaceOnUse"
       y2="40.082806"
       x2="131.20499"
       y1="40.082806"
       x1="75.807854"
       id="linearGradient1009"
       xlink:href="#linearGradient1007" />
    <linearGradient
       gradientUnits="userSpaceOnUse"
       y2="53.767117"
       x2="79.941971"
       y1="53.767117"
       x1="59.625748"
       id="linearGradient1015"
       xlink:href="#linearGradient1013" />
    <linearGradient
       gradientUnits="userSpaceOnUse"
       y2="51.747303"
       x2="67.686768"
       y1="51.747303"
       x1="65.245697"
       id="linearGradient1021"
       xlink:href="#linearGradient1019" />
    <linearGradient
       gradientUnits="userSpaceOnUse"
       y2="43.576279"
       x2="69.633377"
       y1="43.576279"
       x1="58.941578"
       id="linearGradient1061"
       xlink:href="#linearGradient1059" />
    <linearGradient
       xlink:href="#linearGradient951"
       id="linearGradient953"
       x1="75.807854"
       y1="40.082806"
       x2="131.20499"
       y2="40.082806"
       gradientUnits="userSpaceOnUse" />
  </defs>
  <metadata
     id="metadata5">
    <rdf:RDF>
      <cc:Work
         rdf:about="">
        <dc:format>image/svg+xml</dc:format>
        <dc:type
           rdf:resource="http://purl.org/dc/dcmitype/StillImage" />
        <dc:title></dc:title>
      </cc:Work>
    </rdf:RDF>
  </metadata>
  <g
     transform="translate(-13.796131,-11.055803)"
     style="display:inline"
     id="layer2">
    <path
       id="path876"
       d="m 76.02046,62.058964 c 0,0 2.58574,3.378902 2.787574,4.748327 -0.353318,1.322178 -1.22628,2.201182 -1.606399,2.362351 -0.767007,0.325208 -0.872027,0.09266 -1.346533,0.04725 0,0 -0.46661,-0.977106 -0.51804,-1.542446 -0.08358,-0.918734 0.470793,-2.709786 0.470793,-2.709786 l -0.614212,-1.441032 z"
       style="display:inline;fill:url(#linearGradient1003);fill-opacity:1;stroke:none;stroke-width:0.264583px;stroke-linecap:butt;stroke-linejoin:miter;stroke-opacity:1" />
    <path
       id="path847"
       d="m 13.796131,19.182291 c 0,0 3.49628,-6.236606 4.252232,-6.614583 0.755952,-0.377976 5.291667,-1.511905 7.559524,-1.511905 2.267856,0 5.85863,1.511905 10.016369,1.133929 C 39.781993,11.811756 56.790923,23.8125 56.790923,23.8125 l 0.377975,-1.322917 0.850445,0.755952 0.944941,1.889881 2.078871,18.048364 0.963374,3.454752 -0.868625,17.973875 c 0,0 -8.250963,-15.395675 -17.939483,-11.787536 0,0 -5.847503,-16.14213 -18.576215,-19.048685 0,0 -3.711682,-12.049132 -10.826075,-14.593895 z"
       style="display:inline;fill:url(#linearGradient1007);fill-opacity:1;stroke:none;stroke-width:0.264583px;stroke-linecap:butt;stroke-linejoin:miter;stroke-opacity:1" />
    <path
       style="display:inline;fill:#4d4236;fill-opacity:1;stroke:none;stroke-width:0.264583px;stroke-linecap:butt;stroke-linejoin:miter;stroke-opacity:1"
       d="m 13.796131,19.182292 c 0,0 3.49628,-6.236607 4.252232,-6.614584 0.755952,-0.377976 5.291667,-1.511905 7.559524,-1.511905 2.267856,0 5.85863,1.511905 10.016369,1.133929 C 39.781993,11.811756 56.790923,23.8125 56.790923,23.8125 l 0.377975,-1.322917 0.850445,0.755952 0.944941,1.889881 2.078871,18.048365 0.963375,3.454752 -2.27179,4.610398 c 0,0 -1.085405,-3.226842 -1.742572,-7.404473 -0.02081,-1.474752 0.407198,-6.051765 0.448107,-9.590216 0.04323,-3.739299 -0.41937,-5.407083 -2.026017,-8.30789 -2.646082,0.737214 -10.094582,11.249518 -11.205003,13.096399 -3.565085,5.929546 -0.974653,13.396234 -2.010833,13.782122 0,0 -1.954968,-7.441137 0.377365,-12.668705 0.276283,-0.619246 3.457008,-7.756419 11.858001,-15.366141 -3.251032,-0.537488 -13.656986,-0.770416 -22.324248,1.308158 -2.032611,0.487459 -3.759993,1.243902 -4.801432,2.116808 -1.339202,1.122484 -1.85294,2.591948 -3.685902,5.561193 1.073927,-2.863142 1.842037,-4.26444 3.065747,-5.879173 0.805175,-1.06246 3.724827,-2.027922 5.24198,-2.755094 C 34.128742,24.56733 45.93323,22.752084 53.638082,23.180954 46.470537,19.498922 32.493083,14.11455 25.72855,11.901569 c -2.164915,-0.09436 -4.232615,0.130976 -7.336312,1.137649 -1.724444,2.445621 -4.260637,6.263069 -4.596107,6.143074 z"
       id="path847-2" />
    <path
       d="m 65.803042,35.036544 c -1.276767,0.60952 -1.842684,1.346357 -2.790381,2.175021 -1.448801,1.54801 -2.582104,3.027094 -3.489955,5.20255 -0.75237,2.377591 -1.411722,4.387761 -1.270033,6.661851 0.288028,1.535942 1.453663,2.938575 3.094983,3.420128 0.939471,0.02164 1.38328,-1.036502 1.881514,-1.6744 0.366847,-0.419378 0.500706,-1.131289 0.987627,-1.370522 1.640922,-0.441667 3.302564,-1.131955 4.357422,-2.53125 1.31064,-0.80936 2.3378,-1.235187 1.721936,-3.684005 -0.252081,-0.677689 -1.144406,-1.033965 -1.270764,-1.788651 -0.689265,-1.849893 -0.683953,-3.929145 -1.714073,-5.660825 -0.340608,-0.556506 -0.804742,-0.950057 -1.508276,-0.749897 z"
       style="display:inline;fill:#7b6755;fill-opacity:1;stroke:none;stroke-width:0.264583px;stroke-linecap:butt;stroke-linejoin:miter;stroke-opacity:1"
       id="path890-7" />
    <path
       id="path851"
       d="m 75.807855,64.964656 1.771758,-18.851562 7.9375,-21.639136 c 0,0 16.965347,-8.631909 23.328397,-9.039143 4.1761,-0.267269 5.44858,0.38233 10.3567,-0.233861 4.13497,0.01186 11.24682,3.556114 12.00277,7.619358 -5.66964,3.260045 -9.63839,8.362724 -12.00074,14.741072 -9.28965,2.128141 -17.87692,5.339642 -25.459454,16.026156 -8.266917,-2.492722 -16.401403,6.557918 -17.936931,11.377116 z"
       style="display:inline;fill:url(#linearGradient1009);fill-opacity:1;stroke:none;stroke-width:0.264583px;stroke-linecap:butt;stroke-linejoin:miter;stroke-opacity:1" />
    <path
       style="display:inline;fill:url(#linearGradient953);fill-opacity:1;stroke:none;stroke-width:0.264583px;stroke-linecap:butt;stroke-linejoin:miter;stroke-opacity:1"
       d="m 75.807855,64.964658 1.771758,-18.851563 7.9375,-21.639136 c 0,0 16.965347,-8.63191 23.328397,-9.039144 4.1761,-0.267269 5.44858,0.38233 10.3567,-0.233861 4.13497,0.01186 11.24682,3.556114 12.00277,7.619358 -0.23579,0.13558 -2.0596,-5.60621 -11.83118,-7.156779 -5.86667,1.228696 -3.23711,0.690054 -8.19098,2.136557 -14.241482,3.31739 -20.70699,6.221258 -20.70699,6.221258 0,0 7.737803,0.288816 17.99825,3.281212 2.58338,0.753428 6.54457,3.104891 7.25607,3.831379 0.97247,0.992975 3.97438,5.076649 3.47409,6.427445 -0.27734,0.06353 -2.99735,-4.559112 -4.20734,-5.801461 -1.94567,-1.997721 -4.4447,-2.898658 -7.11005,-3.681764 -10.741807,-3.156038 -18.596654,-3.542368 -19.150917,-2.697626 0,0 6.622576,15.033256 6.758485,15.933879 0.132779,0.87989 -0.239899,7.759839 -1.749632,12.273128 C 94.29272,50.4689 95.019231,42.9271 94.748781,41.584794 94.391465,39.811349 88.006177,25.099411 87.252322,26.011295 83.464953,30.592601 76.567972,62.579058 75.807855,64.964658 Z"
       id="path851-4" />
    <path
       d="m 81.379292,38.212787 c -0.496212,0.40353 -0.85401,0.806579 -1.589483,2.228065 -0.521647,1.608249 -1.743372,2.766832 -2.7325,4.104738 -0.467524,0.662771 -0.842037,1.395316 -1.165165,2.974494 -0.380582,1.859965 1.148473,2.807407 2.033637,4.436947 0.664048,1.375207 0.304102,2.144767 1.152694,3.670109 0.984967,0.218355 2.679843,-0.369224 2.957804,-1.110288 1.609167,-2.589303 1.934232,-5.081575 2.371924,-7.97779 0.373851,-2.280251 -0.783311,-4.407141 -1.547593,-6.50549 -0.357951,-0.688374 -0.421661,-0.939393 -0.873794,-1.595815 l 0.132887,-0.611518 -0.358193,0.326099 -0.08269,-0.507263 z"
       style="display:inline;fill:#7b6755;fill-opacity:1;stroke:none;stroke-width:0.264583px;stroke-linecap:butt;stroke-linejoin:miter;stroke-opacity:1"
       id="path894-1" />
    <path
       id="path867"
       d="m 60.442053,59.781985 c 0,0 1.047914,13.44312 5.389856,17.997381 0.937763,0.851038 1.73016,2.26655 1.73016,2.26655 0.330735,-0.969094 -0.111771,-1.806805 1.12054,-2.634346 6.335225,-4.254331 7.190901,-13.721751 7.190901,-13.721751 z"
       style="display:inline;fill:url(#linearGradient1007);fill-opacity:1;stroke:none;stroke-width:0.264583px;stroke-linecap:butt;stroke-linejoin:miter;stroke-opacity:1" />
    <path
       style="fill:url(#linearGradient951);stroke:none;stroke-width:0.264583px;stroke-linecap:butt;stroke-linejoin:miter;stroke-opacity:1"
       d="m 67.562068,80.045916 c 0,0 -0.611053,-6.546797 -0.611053,-7.081337 0,-0.534538 0.53454,-6.548102 0.53454,-6.548102 h 2.004521 l -1.202714,6.013564 z"
       id="path947" />
    <path
       id="path879"
       d="m 60.027343,58.373697 c -0.496094,0.401601 -1.81901,2.669458 -1.889882,2.811198 -0.07087,0.14174 -1.41741,1.27567 -1.41741,1.27567 l -0.04725,1.252045 1.039434,0.968566 c 0,0 1.204799,0.708705 1.204799,0.614209 0,-0.09449 1.771763,-5.008184 1.771763,-5.008184 z"
       style="display:inline;fill:url(#linearGradient983);fill-opacity:1;stroke:none;stroke-width:0.264583px;stroke-linecap:butt;stroke-linejoin:miter;stroke-opacity:1" />
    <path
       style="fill:#c1bdab;fill-opacity:1;stroke:none;stroke-width:0.264583px;stroke-linecap:butt;stroke-linejoin:miter;stroke-opacity:1"
       d="m 59.55099,56.43563 -0.476073,1.603618 0.559596,-0.375849 -0.258918,0.709936 0.183748,0.0084 -0.133636,0.283972 0.267271,-0.0084 -0.459369,0.442663 0.200451,0.03341 -0.07517,0.334087 0.367495,-0.01669 -0.02506,0.442664 0.317384,-0.06682 -0.217157,0.526187 0.292325,-0.05846 -0.133633,0.593006 0.400905,-0.05012 -0.10858,0.835218 0.442666,-0.10858 -0.230862,1.215618 0.779576,-0.28348 -0.03543,0.377976 0.330729,-0.106307 0.118118,0.649647 0.413411,0.03544 -0.09449,1.015809 0.566965,-0.448847 0.07087,0.413412 0.318918,-0.118116 0.0674,0.698302 0.534541,-0.192101 0.04176,0.451017 0.55124,0.0084 c 0,0 0.167045,0.492778 0.217157,0.484425 0.05011,-0.0084 0.542893,-0.04176 0.542893,-0.04176 l 0.182933,0.422587 0.590587,-0.08268 0.18899,0.484283 1.122116,-0.106307 0.34254,0.53153 0.212611,-0.236236 0.177179,0.874069 0.401597,-0.590587 0.236236,0.555152 0.354354,-0.507905 0.271669,0.307107 0.295294,-0.437036 0.484282,0.803198 0.330729,-0.921316 0.413412,0.377976 0.259858,-0.661458 0.0945,0.25986 0.318915,-0.377978 0.283483,0.354353 0.283482,-0.578776 0.354354,0.236236 0.118115,-0.354354 0.661459,0.543341 0.165364,-0.921316 0.318918,0.283482 0.106307,-0.496094 0.271669,0.271669 0.2008,-0.614209 0.07087,0.118116 0.188986,-0.366163 0.495491,0.169638 0.167045,-0.668173 0.534537,0.434313 0.11693,-0.367496 0.44595,0.809694 0.08268,-0.732329 0.377976,0.05906 -0.177175,-0.602398 0.472469,0.0118 -0.295294,-0.555152 0.366165,0.04725 -0.224422,-0.614212 0.472469,0.2008 -0.318918,-0.791387 0.212611,-0.165364 -0.02363,-0.318919 0.2008,0.05906 0.09449,-0.862256 z"
       id="path955" />
    <ellipse
       ry="10.110863"
       rx="9.3549109"
       cy="56.412945"
       cx="68.886162"
       id="path881"
       style="display:inline;opacity:1;fill:#c1bdab;fill-opacity:1;stroke:none;stroke-width:0.384935;stroke-miterlimit:10;stroke-opacity:1" />
    <path
       style="fill:#7b6755;fill-opacity:1;stroke:none;stroke-width:0.264583px;stroke-linecap:butt;stroke-linejoin:miter;stroke-opacity:1"
       d="m 59.637554,53.637182 -0.661459,2.740329 0.921319,-0.507907 -0.0945,1.004001 0.401601,-0.259861 -0.09449,0.944941 0.377976,-0.177175 0.106307,0.980376 0.271669,-0.307107 c 0,0 0.129929,1.41741 0.141742,1.346541 0.0118,-0.07087 0.295294,-0.188989 0.295294,-0.188989 l 0.05906,0.34254 0.74414,-0.460658 -0.106304,1.110306 0.767763,-0.578776 0.02363,0.437036 0.34254,-0.236236 -0.03544,1.299292 0.779577,-0.720516 0.0118,0.425222 0.425225,-0.307104 0.04725,0.980376 0.673269,-0.661458 0.05906,0.425222 0.389789,-0.2008 0.09449,1.051245 0.673269,-0.862256 0.08268,0.271669 0.212614,-0.153553 0.177176,0.578776 0.425222,-0.437034 0.377976,0.779576 0.531529,-0.614211 0.448847,0.779576 0.259858,-0.649647 0.236236,0.236236 0.377976,-0.295294 0.602401,0.779574 0.555151,-0.767763 0.803201,0.980377 0.165364,-0.448848 0.271669,0.318916 0.177176,-0.944938 0.342543,0.425222 0.153551,-0.578776 0.354353,0.271669 0.118118,-0.389787 0.342541,0.283483 0.236235,-0.484283 0.637834,0.507905 0.236236,-0.767763 0.661458,0.519716 0.236236,-0.933127 0.555152,0.389787 0.02363,-0.602398 0.460658,0.224422 -0.07087,-0.448847 0.791387,0.330729 0.0118,-0.377976 0.33073,0.08268 -0.212614,-0.708705 0.472471,0.08268 -0.153553,-0.448847 0.519718,0.472471 0.04725,-1.004001 0.389787,0.271672 0.307107,-1.393788 z"
       id="path945" />
    <path
       style="fill:url(#linearGradient1059);fill-opacity:1;stroke:none;stroke-width:0.264583px;stroke-linecap:butt;stroke-linejoin:miter;stroke-opacity:1"
       d="m 78.093596,51.069284 c -0.913532,-1.724388 -1.258724,-4.436132 -0.490361,-6.290917 1.488879,-1.854785 2.154679,-3.176178 2.480469,-4.134115 0.311607,-0.916234 1.121561,-2.1853 1.593053,-2.215719 0.366164,-0.02362 2.092214,4.424516 2.281204,6.45614 0.188986,2.031621 -1.954532,8.48561 -3.476795,9.528177 -1.264699,0.866167 -1.597454,-1.852138 -2.38757,-3.343566 z"
       id="path894" />
    <ellipse
       ry="7.9375"
       rx="10.158111"
       cy="53.767117"
       cx="69.783859"
       id="path889"
       style="opacity:1;fill:url(#linearGradient1015);fill-opacity:1;stroke:none;stroke-width:0.37792;stroke-miterlimit:10;stroke-opacity:1" />
    <path
       id="path1055"
       d="m 77.470484,48.644676 1.504858,-0.79975 -0.144312,1.236688 0.890969,-0.247823 -0.450762,0.930552 1.827815,0.03821 -0.992145,0.877485 0.73922,0.465374 -0.822478,0.9 0.827877,0.505866 -0.862792,0.281185 0.832689,0.723621 -0.977523,0.244743 0.459394,0.439285 -0.440945,0.307446 z"
       style="fill:url(#linearGradient1013);stroke:none;stroke-width:0.295674px;stroke-linecap:butt;stroke-linejoin:miter;stroke-opacity:1" />
    <path
       id="path891"
       d="m 67.031715,50.424386 c -1.943025,0.222659 -2.124137,1.374852 -1.381976,2.645833 1.108326,-0.06375 1.889882,-0.460658 1.889882,-0.460658 0,0 0.561049,-1.132165 -0.507906,-2.185175 z"
       style="display:inline;opacity:1;fill:url(#linearGradient1021);fill-opacity:1;stroke:none;stroke-width:0.264583px;stroke-linecap:butt;stroke-linejoin:miter;stroke-opacity:1" />
    <circle
       style="display:inline;opacity:1;fill:#fafefa;fill-opacity:1;stroke:none;stroke-width:0.18672;stroke-miterlimit:10;stroke-opacity:1"
       id="path904-0"
       cx="66.47657"
       cy="52.184338"
       r="0.11221169" />
    <circle
       r="0.20670572"
       cy="51.729588"
       cx="66.671455"
       id="path904"
       style="opacity:1;fill:#fafefa;fill-opacity:1;stroke:none;stroke-width:0.343958;stroke-miterlimit:10;stroke-opacity:1" />
    <path
       id="path927"
       d="m 76.564069,54.700404 c 0.892589,-0.147278 1.054217,-0.624142 1.022689,-0.979231 -0.03908,-0.440124 -0.11175,-1.124535 -0.91733,-1.305037 -0.522631,0.525134 -0.453514,1.428184 -0.105355,2.284268 z"
       style="display:inline;opacity:1;fill:url(#linearGradient1019);fill-opacity:1;stroke:none;stroke-width:0.296843px;stroke-linecap:butt;stroke-linejoin:miter;stroke-opacity:1" />
    <ellipse
       ry="0.12528259"
       rx="0.12110651"
       cy="53.529076"
       cx="76.359734"
       id="path931"
       style="opacity:1;fill:#ffffff;fill-opacity:1;stroke:none;stroke-width:0.343958;stroke-miterlimit:10;stroke-opacity:1" />
    <path
       style="display:inline;fill:#9f796e;fill-opacity:1;stroke:none;stroke-width:0.264583px;stroke-linecap:butt;stroke-linejoin:miter;stroke-opacity:1"
       d="m 72.836257,53.716354 c 0,0 -0.377149,1.245032 -0.263348,1.213391 0.113801,-0.03163 1.796135,-0.04825 2.139845,-0.514073 0.34371,-0.465815 0.385252,-1.700899 0.352278,-2.084047 -0.03296,-0.383148 -0.489044,-1.688287 -1.460579,-1.646183 -0.489761,0.02123 -0.556229,0.684173 -1.066581,0.755576 -0.09723,0.01364 -1.118395,-1.245168 -1.576714,-1.180409 -0.355512,0.05026 -1.081886,1.357159 -1.235193,1.815275 -0.111021,0.331761 -0.21896,2.206697 0.489812,2.197534 0.49226,-0.0064 1.462946,0.531147 1.921492,0.558359 0.24269,-0.466916 0.186813,-0.805284 0.220406,-1.254057 -0.451249,-0.03198 -0.971573,-0.121885 -1.326971,-0.307582 -0.191885,-0.100261 -0.881899,-1.068393 -0.456866,-1.568955 0.561037,-0.231882 1.028466,1.481435 1.692093,1.482992 0.0068,-0.305036 -0.08336,-0.850658 0.257617,-0.825207 0.199136,0.01486 0.181355,0.409012 0.248433,0.861253 0.443919,-0.01788 0.816775,-1.100918 0.816775,-1.100918 0,0 1.123594,-0.297705 0.865375,0.696035 -0.258222,0.993741 -0.56285,0.982817 -0.858865,1.038152 -0.296013,0.05533 -0.759009,-0.137136 -0.759009,-0.137136 z"
       id="path882" />
    <path
       style="fill:#4f3128;fill-opacity:1;stroke:none;stroke-width:0.264583px;stroke-linecap:butt;stroke-linejoin:miter;stroke-opacity:0.233871"
       d="m 66.834085,56.243529 c 0,0 1.286234,0.15034 1.77066,0.116932 0.484425,-0.03341 1.921,-0.785106 3.424392,-0.65147 1.503391,0.133636 1.854183,0.300678 2.455538,0.985557 0.601356,0.684877 0.326824,0.737094 1.88759,1.336348 -1.613059,0.131532 -3.15712,1.302937 -4.30972,1.219416 -1.152599,-0.08352 -5.22846,-3.006783 -5.22846,-3.006783 z"
       id="path884" />
    <path
       style="opacity:1;fill:#c4c1c2;fill-opacity:1;stroke:none;stroke-width:0.264583px;stroke-linecap:butt;stroke-linejoin:miter;stroke-opacity:1"
       d="m 70.692789,55.809216 c 0,0 1.002261,1.486688 1.052373,1.403167 0.05012,-0.08352 0.451017,-0.618062 0.451017,-0.618062 0,0 0.30903,0.74752 0.375848,0.74752 0.06682,0 0.43744,-0.51212 0.638942,-0.868626 0.217155,-0.384201 0.411239,-0.874886 0.233859,-1.085784 -0.148305,-0.176328 -0.446839,0.03759 -0.964673,-0.02925 -0.517835,-0.06682 -0.684881,-0.283976 -1.319646,-0.183749 -0.680904,0.263204 -0.46772,0.634784 -0.46772,0.634784 z"
       id="path887" />
    <path
       style="display:inline;fill:url(#linearGradient1061);fill-opacity:1;stroke:none;stroke-width:0.264583px;stroke-linecap:butt;stroke-linejoin:miter;stroke-opacity:1"
       d="m 66.182615,35.179351 c 0.77279,0.06706 1.469983,1.369756 1.637027,2.57247 0.167042,1.202711 0.400905,4.276312 1.503389,5.278572 1.102487,1.002261 -1.00226,3.57473 -2.104747,4.510173 -1.102487,0.935445 -3.541321,1.503391 -3.541321,1.503391 0,0 -1.77066,3.240643 -2.271789,2.906557 -0.501131,-0.334087 -1.937705,-1.236123 -2.372019,-2.639288 -0.434313,-1.403165 0.768401,-6.748555 1.670437,-8.552624 0.902033,-1.80407 4.467897,-5.666992 5.479023,-5.579251 z"
       id="path890" />
    <path
       id="path913"
       d="m 74.056249,56.268399 -0.539882,2.069863 c 0,0 1.151501,-0.84173 1.122117,-1.464657 -0.339356,-0.439425 -0.582235,-0.605206 -0.582235,-0.605206 z"
       style="fill:#c4c1c2;fill-opacity:1;stroke:none;stroke-width:0.264583px;stroke-linecap:butt;stroke-linejoin:miter;stroke-opacity:1" />
    <path
       id="path915"
       d="m 68.183359,56.362745 0.525625,1.113258 c 0,0 0.339272,-0.768093 0.315965,-1.215135 -0.340328,0.09576 -0.530449,0.100994 -0.84159,0.101877 z"
       style="fill:#c4c1c2;fill-opacity:1;stroke:none;stroke-width:0.264583px;stroke-linecap:butt;stroke-linejoin:miter;stroke-opacity:1" />
    <path
       id="path917"
       d="m 58.364982,65.063425 -0.217157,-0.835218 0.618061,-1.536798 -0.7684,1.419868 0.100227,0.785103 z"
       style="fill:#8e4a3b;fill-opacity:1;stroke:none;stroke-width:0.264583px;stroke-linecap:butt;stroke-linejoin:miter;stroke-opacity:1" />
    <path
       style="display:inline;fill:#8e4a3b;fill-opacity:1;stroke:none;stroke-width:0.264583px;stroke-linecap:butt;stroke-linejoin:miter;stroke-opacity:1"
       d="m 57.54647,64.528886 -0.217157,-0.835218 0.618061,-1.536798 -0.7684,1.419868 0.100227,0.785103 z"
       id="path917-0" />
    <path
       style="display:inline;fill:#8e4a3b;fill-opacity:1;stroke:none;stroke-width:0.264583px;stroke-linecap:butt;stroke-linejoin:miter;stroke-opacity:1"
       d="m 78.163281,67.993299 0.217157,-0.835218 -0.618061,-1.536798 0.7684,1.419868 -0.100227,0.785103 z"
       id="path917-7" />
    <path
       id="path917-7-5"
       d="m 77.275362,69.087434 0.279093,-1.073432 -0.794339,-1.97511 0.987556,1.824831 -0.128812,1.009023 z"
       style="display:inline;fill:#8e4a3b;fill-opacity:1;stroke:none;stroke-width:0.340045px;stroke-linecap:butt;stroke-linejoin:miter;stroke-opacity:1" />
    <path
       style="display:inline;fill:#8e4a3b;fill-opacity:1;stroke:none;stroke-width:0.340045px;stroke-linecap:butt;stroke-linejoin:miter;stroke-opacity:1"
       d="m 76.193283,69.277095 0.237332,-1.156953 -0.226391,-1.899941 0.469721,1.908353 -0.162221,1.209475 z"
       id="path917-7-5-2" />
    <path
       style="display:inline;fill:url(#linearGradient1013);stroke:none;stroke-width:0.295675px;stroke-linecap:butt;stroke-linejoin:miter;stroke-opacity:1"
       d="m 62.337421,51.707985 -1.225487,-1.184221 1.220784,-0.244758 -0.510923,-0.770843 1.024284,0.141267 -0.52827,-1.750228 1.141044,0.672569 0.21427,-0.846822 1.110048,0.504245 0.225395,-0.943652 0.533951,0.73374 0.431015,-1.015493 0.53473,0.854116 0.275895,-0.572622 0.428618,0.32441 z"
       id="path1055-3" />
  </g>
</svg>
