<?xml version="1.0" encoding="UTF-8" standalone="no"?>
<svg
   xmlns:osb="http://www.openswatchbook.org/uri/2009/osb"
   xmlns:dc="http://purl.org/dc/elements/1.1/"
   xmlns:cc="http://creativecommons.org/ns#"
   xmlns:rdf="http://www.w3.org/1999/02/22-rdf-syntax-ns#"
   xmlns:svg="http://www.w3.org/2000/svg"
   xmlns="http://www.w3.org/2000/svg"
   xmlns:xlink="http://www.w3.org/1999/xlink"
   id="svg1826"
   version="1.1"
   viewBox="0 0 31.75 31.750013"
   height="31.750013mm"
   width="31.75mm">
  <defs
     id="defs1820">
    <linearGradient
       gradientUnits="userSpaceOnUse"
       y2="-54.945358"
       x2="23.01914"
       y1="-54.945358"
       x1="7.4081964"
       id="linearGradient3093"
       xlink:href="#linearGradient3091" />
    <linearGradient
       osb:paint="solid"
       id="linearGradient3091">
      <stop
         id="stop3089"
         offset="0"
         style="stop-color:#79706a;stop-opacity:1;" />
    </linearGradient>
    <linearGradient
       gradientUnits="userSpaceOnUse"
       y2="-60.236721"
       x2="15.082088"
       y1="-60.236721"
       x1="7.1437497"
       id="linearGradient3073"
       xlink:href="#linearGradient3071" />
    <linearGradient
       osb:paint="solid"
       id="linearGradient3071">
      <stop
         id="stop3069"
         offset="0"
         style="stop-color:#7b736e;stop-opacity:1;" />
    </linearGradient>
    <linearGradient
       gradientUnits="userSpaceOnUse"
       y2="-60.236721"
       x2="38.892967"
       y1="-60.236721"
       x1="31.22024"
       id="linearGradient3075"
       xlink:href="#linearGradient3071" />
    <linearGradient
       gradientUnits="userSpaceOnUse"
       y2="-65.528343"
       x2="38.893749"
       y1="-65.528343"
       x1="23.282806"
       id="linearGradient3087"
       xlink:href="#linearGradient3085" />
    <linearGradient
       osb:paint="solid"
       id="linearGradient3085">
      <stop
         id="stop3083"
         offset="0"
         style="stop-color:#908277;stop-opacity:1;" />
    </linearGradient>
    <linearGradient
       gradientUnits="userSpaceOnUse"
       y2="-65.528343"
       x2="23.01914"
       y1="-65.528343"
       x1="7.4081964"
       id="linearGradient3081"
       xlink:href="#linearGradient3079" />
    <linearGradient
       osb:paint="solid"
       id="linearGradient3079">
      <stop
         id="stop3077"
         offset="0"
         style="stop-color:#9c8c83;stop-opacity:1;" />
    </linearGradient>
    <linearGradient
       gradientUnits="userSpaceOnUse"
       y2="-39.070343"
       x2="38.893749"
       y1="-39.070343"
       x1="30.427082"
       id="linearGradient2737"
       xlink:href="#linearGradient2729" />
    <linearGradient
       osb:paint="solid"
       id="linearGradient2729">
      <stop
         id="stop2727"
         offset="0"
         style="stop-color:#7e7771;stop-opacity:1;" />
    </linearGradient>
    <linearGradient
       gradientUnits="userSpaceOnUse"
       y2="-44.361706"
       x2="38.893749"
       y1="-44.361706"
       x1="38.364517"
       id="linearGradient2725"
       xlink:href="#linearGradient2717" />
    <linearGradient
       osb:paint="solid"
       id="linearGradient2717">
      <stop
         id="stop2715"
         offset="0"
         style="stop-color:#9a8a7e;stop-opacity:1;" />
    </linearGradient>
    <linearGradient
       gradientUnits="userSpaceOnUse"
       y2="-49.653328"
       x2="38.893749"
       y1="-49.653328"
       x1="30.427082"
       id="linearGradient2713"
       xlink:href="#linearGradient2709" />
    <linearGradient
       osb:paint="solid"
       id="linearGradient2709">
      <stop
         id="stop2707"
         offset="0"
         style="stop-color:#6e675f;stop-opacity:1;" />
    </linearGradient>
    <linearGradient
       gradientUnits="userSpaceOnUse"
       y2="-39.070362"
       x2="14.288282"
       y1="-39.070362"
       x1="7.1437502"
       id="linearGradient2731"
       xlink:href="#linearGradient2729" />
    <linearGradient
       gradientUnits="userSpaceOnUse"
       y2="-44.361897"
       x2="22.225"
       y1="-44.361897"
       x1="7.1437502"
       id="linearGradient2719"
       xlink:href="#linearGradient2717" />
    <linearGradient
       gradientUnits="userSpaceOnUse"
       y2="-49.653347"
       x2="14.288282"
       y1="-49.653347"
       x1="7.1437502"
       id="linearGradient2711"
       xlink:href="#linearGradient2709" />
  </defs>
  <metadata
     id="metadata1823">
    <rdf:RDF>
      <cc:Work
         rdf:about="">
        <dc:format>image/svg+xml</dc:format>
        <dc:type
           rdf:resource="http://purl.org/dc/dcmitype/StillImage" />
        <dc:title></dc:title>
      </cc:Work>
    </rdf:RDF>
  </metadata>
  <g
     transform="translate(-89.958333,-130.77976)"
     id="layer1">
    <g
       transform="translate(82.814583,199.04226)"
       style="display:inline;opacity:1"
       clip-path="none"
       id="g1616">
      <rect
         style="display:inline;fill:#514649;fill-opacity:1;stroke-width:1.16741;stroke-miterlimit:10"
         id="rect1227-3-6-4-6-4-9-5"
         width="31.749218"
         height="31.75"
         x="7.1437502"
         y="-68.262497" />
      <path
         id="rect1227-3-6"
         style="display:inline;fill:#6f6762;fill-opacity:1;stroke-width:0.294539;stroke-miterlimit:10"
         d="m 15.345501,-62.441857 c 0,1.587621 0,3.175243 0,4.762864 5.203648,0 10.407296,0 15.610944,0 0,-1.705239 0,-3.410478 0,-5.115718 -5.203648,0 -10.407296,0 -15.610944,0 0,0.117618 0,0.235236 0,0.352854 z" />
      <path
         id="rect1227-3-6-4"
         style="display:inline;fill:url(#linearGradient3093);fill-opacity:1;stroke-width:0.294539;stroke-miterlimit:10"
         d="m 7.4081966,-57.150365 c 0,1.587622 0,3.175243 0,4.762865 5.2036474,0 10.4072954,0 15.6109434,0 0,-1.705239 0,-3.410478 0,-5.115718 -5.203648,0 -10.407296,0 -15.6109434,0 0,0.117618 0,0.235236 0,0.352853 z" />
      <path
         id="rect1227-3-6-4-6"
         style="display:inline;fill:#847870;fill-opacity:1;stroke-width:0.294539;stroke-miterlimit:10"
         d="m 23.282806,-57.150365 c 0,1.587622 0,3.175243 0,4.762865 5.203648,0 10.407296,0 15.610944,0 0,-1.705239 0,-3.410478 0,-5.115718 -5.203648,0 -10.407296,0 -15.610944,0 0,0.117618 0,0.235236 0,0.352853 z" />
      <path
         id="rect1227-3-6-4-6-1"
         style="display:inline;fill:url(#linearGradient3073);fill-opacity:1;stroke-width:0.29454;stroke-miterlimit:10"
         d="m 7.1437499,-62.794622 v 5.115799 h 7.9383381 v -5.115799 z" />
      <path
         id="rect1227-3-6-4-6-9"
         style="display:inline;fill:url(#linearGradient3075);fill-opacity:1;stroke-width:0.29454;stroke-miterlimit:10"
         d="m 31.22024,-62.794622 v 0.352766 4.763033 h 7.672728 v -5.115799 z" />
      <path
         id="rect1227-3-6-4-6-4"
         style="display:inline;fill:url(#linearGradient3087);fill-opacity:1;stroke-width:0.294539;stroke-miterlimit:10"
         d="m 23.282806,-67.73335 c 0,1.587621 0,3.175243 0,4.762864 5.203648,0 10.407296,0 15.610944,0 0,-1.705239 0,-3.410478 0,-5.115717 -5.203648,0 -10.407296,0 -15.610944,0 0,0.117617 0,0.235235 0,0.352853 z" />
      <path
         id="rect1227-3-6-4-6-4-9"
         style="display:inline;fill:url(#linearGradient3081);fill-opacity:1;stroke-width:0.294539;stroke-miterlimit:10"
         d="m 7.4081966,-67.73335 c 0,1.587621 0,3.175243 0,4.762864 5.2036474,0 10.4072954,0 15.6109434,0 0,-1.705239 0,-3.410478 0,-5.115717 -5.203648,0 -10.407296,0 -15.6109434,0 0,0.117617 0,0.235235 0,0.352853 z" />
      <path
         d="m 22.489779,-46.56684 c 0,1.587621 0,3.175243 0,4.762864 5.203648,0 10.407296,0 15.610944,0 0,-1.705239 0,-3.410478 0,-5.115717 -5.203648,0 -10.407296,0 -15.610944,0 0,0.117617 0,0.235235 0,0.352853 z"
         style="display:inline;fill:#93847a;fill-opacity:1;stroke-width:0.294539;stroke-miterlimit:10"
         id="rect1227-3-6-2" />
      <path
         d="m 14.552474,-41.275347 c 0,1.587621 0,3.175243 0,4.762864 5.203648,0 10.407296,0 15.610944,0 0,-1.705239 0,-3.410478 0,-5.115718 -5.203648,0 -10.407296,0 -15.610944,0 0,0.117618 0,0.235236 0,0.352854 z"
         style="display:inline;fill:#736c66;fill-opacity:1;stroke-width:0.294539;stroke-miterlimit:10"
         id="rect1227-3-6-4-7" />
      <path
         d="m 30.427083,-41.275347 c 0,1.587621 0,3.175243 0,4.762864 2.822222,0 5.644445,0 8.466667,0 0,-1.705239 0,-3.410478 0,-5.115718 -2.822222,0 -5.644445,0 -8.466667,0 0,0.117618 0,0.235236 0,0.352854 z"
         style="display:inline;fill:url(#linearGradient2737);fill-opacity:1;stroke-width:0.216912;stroke-miterlimit:10"
         id="rect1227-3-6-4-6-93" />
      <path
         d="m 38.364518,-46.919607 v 0.352766 4.763034 h 0.529232 v -5.1158 z"
         style="display:inline;fill:url(#linearGradient2725);fill-opacity:1;stroke-width:0.0773557;stroke-miterlimit:10"
         id="rect1227-3-6-4-6-9-6" />
      <path
         d="m 30.427083,-51.858333 c 0,1.587621 0,3.175243 0,4.762864 2.822222,0 5.644445,0 8.466667,0 0,-1.705239 0,-3.410478 0,-5.115717 -2.822222,0 -5.644445,0 -8.466667,0 0,0.117617 0,0.235235 0,0.352853 z"
         style="display:inline;fill:url(#linearGradient2713);fill-opacity:1;stroke-width:0.216912;stroke-miterlimit:10"
         id="rect1227-3-6-4-6-4-5" />
      <path
         d="m 14.552474,-51.858333 c 0,1.587621 0,3.175243 0,4.762864 5.203648,0 10.407296,0 15.610944,0 0,-1.705239 0,-3.410478 0,-5.115717 -5.203648,0 -10.407296,0 -15.610944,0 0,0.117617 0,0.235235 0,0.352853 z"
         style="display:inline;fill:#81766e;fill-opacity:1;stroke-width:0.294539;stroke-miterlimit:10"
         id="rect1227-3-6-4-6-4-9-2" />
      <path
         id="rect1227-3-6-4-6-93-7"
         style="display:inline;fill:url(#linearGradient2731);fill-opacity:1;stroke-width:0.199258;stroke-miterlimit:10"
         d="m 7.14375,-41.275367 c 0,1.587621 0,3.175243 0,4.762864 2.3815107,0 4.763021,0 7.144532,0 0,-1.705238 0,-3.410478 0,-5.115717 -2.381511,0 -4.7630213,0 -7.144532,0 0,0.117618 0,0.235236 0,0.352853 z" />
      <path
         id="rect1227-3-6-4-6-9-6-6"
         style="display:inline;fill:url(#linearGradient2719);fill-opacity:1;stroke-width:0.412928;stroke-miterlimit:10"
         d="m 7.14375,-46.919626 v 0.352743 4.762716 H 22.225 v -5.115459 z" />
      <path
         id="rect1227-3-6-4-6-4-5-5"
         style="display:inline;fill:url(#linearGradient2711);fill-opacity:1;stroke-width:0.199258;stroke-miterlimit:10"
         d="m 7.14375,-51.858353 c 0,1.587622 0,3.175243 0,4.762865 2.3815107,0 4.763021,0 7.144532,0 0,-1.705239 0,-3.410478 0,-5.115718 -2.381511,0 -4.7630213,0 -7.144532,0 0,0.117618 0,0.235236 0,0.352853 z" />
    </g>
  </g>
</svg>
